<svg xmlns="http://www.w3.org/2000/svg" xmlns:xlink="http://www.w3.org/1999/xlink" width="1200" zoomAndPan="magnify" viewBox="0 0 900 899.99999" height="1200" preserveAspectRatio="xMidYMid meet" version="1.0"><defs><g/><clipPath id="db04e841eb"><path d="M 112.5 107.25 L 798 107.25 L 798 792.75 L 112.5 792.75 Z M 112.5 107.25 " clip-rule="nonzero"/></clipPath><clipPath id="4c336ae309"><path d="M 794.25 450 C 794.25 262.777344 642.472656 111 455.25 111 L 455.25 109.125 L 455.25 111 C 268.027344 111 116.25 262.777344 116.25 450 L 114.375 450 L 116.25 450 C 116.25 637.222656 268.027344 789 455.25 789 L 455.25 790.875 L 455.25 789 C 642.472656 789 794.25 637.222656 794.25 450 L 796.125 450 L 794.25 450 M 798 450 C 798 639.292969 644.542969 792.75 455.25 792.75 C 265.957031 792.75 112.5 639.292969 112.5 450 C 112.5 260.707031 265.957031 107.25 455.25 107.25 C 644.542969 107.25 798 260.707031 798 450 Z M 798 450 " clip-rule="nonzero"/></clipPath></defs><g clip-path="url(#db04e841eb)"><g clip-path="url(#4c336ae309)"><path fill="#000000" d="M 112.5 107.25 L 798 107.25 L 798 792.75 L 112.5 792.75 Z M 112.5 107.25 " fill-opacity="1" fill-rule="nonzero"/></g></g><g fill="#000000" fill-opacity="1"><g transform="translate(242.860494, 601.680517)"><g><path d="M 81.046875 -171.296875 C 94.328125 -171.296875 104.390625 -166.644531 111.234375 -157.34375 C 118.078125 -148.050781 121.5 -133.804688 121.5 -114.609375 L 121.5 0 L 97.90625 0 L 97.90625 -109.859375 C 97.90625 -123.441406 96.140625 -133.601562 92.609375 -140.34375 C 89.085938 -147.082031 83.550781 -150.453125 76 -150.453125 C 64.96875 -150.453125 56.894531 -145.546875 51.78125 -135.734375 C 46.675781 -125.929688 44.125 -110.207031 44.125 -88.5625 L 44.125 0 L 20.53125 0 L 20.53125 -168.234375 L 39.375 -168.234375 L 41.984375 -143.875 L 43.515625 -143.875 C 45.859375 -149.488281 48.867188 -154.335938 52.546875 -158.421875 C 56.222656 -162.503906 60.460938 -165.671875 65.265625 -167.921875 C 70.066406 -170.171875 75.328125 -171.296875 81.046875 -171.296875 Z M 81.046875 -171.296875 "/></g></g></g><g fill="#000000" fill-opacity="1"><g transform="translate(390.553974, 601.680517)"><g><path d="M 44.125 -238.40625 L 44.125 -168.234375 C 44.125 -164.960938 44.046875 -161.304688 43.890625 -157.265625 C 43.742188 -153.234375 43.566406 -148.972656 43.359375 -144.484375 L 44.4375 -144.484375 C 48.625 -153.265625 53.859375 -159.875 60.140625 -164.3125 C 66.421875 -168.757812 73.59375 -170.984375 81.65625 -170.984375 C 97.695312 -170.984375 109.878906 -163.65625 118.203125 -149 C 126.523438 -134.34375 130.6875 -112.816406 130.6875 -84.421875 C 130.6875 -65.628906 128.820312 -49.71875 125.09375 -36.6875 C 121.363281 -23.664062 115.898438 -13.785156 108.703125 -7.046875 C 101.503906 -0.304688 92.695312 3.0625 82.28125 3.0625 C 74 3.0625 66.742188 0.992188 60.515625 -3.140625 C 54.285156 -7.273438 48.925781 -13.6875 44.4375 -22.375 L 43.046875 -22.375 L 39.6875 0 L 20.53125 0 L 20.53125 -238.40625 Z M 76.609375 -150.296875 C 68.023438 -150.296875 61.382812 -147.5625 56.6875 -142.09375 C 51.988281 -136.632812 48.71875 -129.15625 46.875 -119.65625 C 45.039062 -110.15625 44.125 -99.328125 44.125 -87.171875 L 44.125 -79.984375 C 44.125 -58.734375 46.851562 -42.972656 52.3125 -32.703125 C 57.78125 -22.441406 65.929688 -17.3125 76.765625 -17.3125 C 86.773438 -17.3125 94.226562 -22.773438 99.125 -33.703125 C 104.03125 -44.628906 106.484375 -61.640625 106.484375 -84.734375 C 106.484375 -106.378906 104.109375 -122.71875 99.359375 -133.75 C 94.609375 -144.78125 87.023438 -150.296875 76.609375 -150.296875 Z M 76.609375 -150.296875 "/></g></g></g><g fill="#000000" fill-opacity="1"><g transform="translate(540.392469, 601.680517)"><g><path d="M 18.6875 -16.390625 C 18.6875 -22.617188 20.039062 -27.367188 22.75 -30.640625 C 25.457031 -33.910156 29.414062 -35.546875 34.625 -35.546875 C 39.632812 -35.546875 43.566406 -34.035156 46.421875 -31.015625 C 49.285156 -28.003906 50.71875 -23.128906 50.71875 -16.390625 C 50.71875 -9.859375 49.234375 -5.054688 46.265625 -1.984375 C 43.304688 1.078125 39.425781 2.609375 34.625 2.609375 C 29.625 2.609375 25.71875 1 22.90625 -2.21875 C 20.09375 -5.4375 18.6875 -10.160156 18.6875 -16.390625 Z M 18.6875 -16.390625 "/></g></g></g><g fill="#000000" fill-opacity="1"><g transform="translate(616.074738, 601.680517)"><g><path d="M 95.296875 -44.4375 C 95.296875 -34.320312 93.457031 -25.710938 89.78125 -18.609375 C 86.101562 -11.515625 80.765625 -6.128906 73.765625 -2.453125 C 66.773438 1.222656 58.273438 3.0625 48.265625 3.0625 C 40.503906 3.0625 33.40625 2.140625 26.96875 0.296875 C 20.53125 -1.535156 15.066406 -3.726562 10.578125 -6.28125 L 10.578125 -30.796875 C 15.066406 -27.117188 20.628906 -24.078125 27.265625 -21.671875 C 33.910156 -19.273438 40.65625 -18.078125 47.5 -18.078125 C 55.363281 -18.078125 61.414062 -20.320312 65.65625 -24.8125 C 69.894531 -29.3125 72.015625 -35.597656 72.015625 -43.671875 C 72.015625 -48.460938 71.144531 -52.617188 69.40625 -56.140625 C 67.664062 -59.671875 64.878906 -63.046875 61.046875 -66.265625 C 57.222656 -69.484375 52.195312 -72.878906 45.96875 -76.453125 C 39.019531 -80.742188 32.863281 -85.1875 27.5 -89.78125 C 22.132812 -94.375 17.972656 -99.660156 15.015625 -105.640625 C 12.054688 -111.617188 10.578125 -118.894531 10.578125 -127.46875 C 10.578125 -140.539062 14.835938 -151.113281 23.359375 -159.1875 C 31.890625 -167.257812 43.15625 -171.296875 57.15625 -171.296875 C 64.195312 -171.296875 70.859375 -170.398438 77.140625 -168.609375 C 83.421875 -166.828125 89.375 -164.144531 95 -160.5625 L 86.109375 -141.5625 C 81.816406 -144.53125 77.242188 -146.878906 72.390625 -148.609375 C 67.535156 -150.347656 62.554688 -151.21875 57.453125 -151.21875 C 49.992188 -151.21875 44.09375 -149.125 39.75 -144.9375 C 35.414062 -140.75 33.25 -135.132812 33.25 -128.09375 C 33.25 -123.382812 34.113281 -119.34375 35.84375 -115.96875 C 37.582031 -112.601562 40.441406 -109.335938 44.421875 -106.171875 C 48.410156 -103.003906 53.675781 -99.429688 60.21875 -95.453125 C 67.15625 -91.054688 73.253906 -86.585938 78.515625 -82.046875 C 83.773438 -77.503906 87.882812 -72.269531 90.84375 -66.34375 C 93.8125 -60.414062 95.296875 -53.113281 95.296875 -44.4375 Z M 95.296875 -44.4375 "/></g></g></g></svg>